<?xml version="1.0" standalone="no"?>
<!DOCTYPE svg PUBLIC "-//W3C//DTD SVG 20010904//EN"
 "http://www.w3.org/TR/2001/REC-SVG-20010904/DTD/svg10.dtd">
<svg version="1.0" xmlns="http://www.w3.org/2000/svg"
 width="1254.000000pt" height="1254.000000pt" viewBox="0 0 1254.000000 1254.000000"
 preserveAspectRatio="xMidYMid meet">

<g transform="translate(0.000000,1254.000000) scale(0.100000,-0.100000)"
fill="#000000" stroke="none">
<path d="M6145 10709 c-39 -23 -104 -60 -145 -83 -41 -23 -181 -103 -310 -177
-327 -188 -510 -292 -845 -479 -159 -89 -468 -269 -685 -400 -380 -227 -865
-517 -1207 -719 -90 -53 -163 -99 -163 -102 0 -3 37 -26 83 -51 45 -25 175
-98 289 -162 114 -64 210 -116 213 -116 3 0 83 47 178 104 95 57 300 179 457
271 157 92 322 189 367 216 45 27 202 118 350 202 147 85 356 205 463 267 179
104 511 295 885 510 l150 85 3 338 c1 185 -1 337 -6 337 -4 0 -39 -19 -77 -41z"/>
<path d="M6645 10718 c-3 -13 -4 -162 -3 -332 l3 -309 370 -213 c204 -117 426
-246 495 -286 235 -136 485 -281 640 -373 85 -50 200 -118 255 -150 55 -32
159 -93 230 -135 72 -43 261 -154 420 -248 160 -94 324 -191 365 -215 69 -42
76 -44 100 -32 135 74 573 332 574 339 1 8 -134 91 -599 368 -143 85 -449 267
-680 405 -560 333 -974 573 -1637 947 -197 111 -387 206 -412 206 -6 0 -32 11
-58 25 -57 30 -56 30 -63 3z"/>
<path d="M4940 7811 l0 -799 63 -35 c58 -32 365 -209 592 -342 425 -247 686
-395 700 -395 3 0 5 359 5 798 l0 798 -57 33 c-169 97 -1100 631 -1168 669
-44 24 -89 51 -100 58 -11 8 -23 14 -27 14 -5 0 -8 -360 -8 -799z"/>
<path d="M10015 8254 c-121 -69 -244 -140 -272 -158 l-53 -32 -2 -1769 -3
-1769 135 -80 c74 -43 199 -117 277 -162 78 -46 146 -84 151 -84 31 0 33 113
30 2130 -2 1108 -7 2023 -12 2033 -4 9 -13 17 -20 16 -6 0 -110 -56 -231 -125z"/>
<path d="M2605 8309 c-9 -63 -15 -3984 -6 -4070 l6 -58 170 101 c94 56 224
134 290 173 l120 73 3 1769 2 1769 -42 24 c-24 12 -138 76 -255 142 -116 65
-227 121 -246 125 l-34 5 -8 -53z"/>
<path d="M6465 6945 l0 -786 30 -18 c37 -23 750 -446 860 -511 44 -26 165 -98
270 -160 143 -84 193 -109 205 -102 65 42 410 259 670 422 465 292 604 380
613 389 4 4 -54 43 -130 86 -76 43 -192 111 -258 150 -125 75 -687 405 -1005
590 -102 59 -372 217 -600 350 -228 133 -443 256 -478 274 -34 17 -87 47 -117
66 -30 19 -55 35 -57 35 -2 0 -3 -353 -3 -785z"/>
<path d="M6240 6028 c-30 -17 -212 -126 -405 -241 -192 -116 -460 -275 -595
-355 -135 -79 -257 -153 -273 -164 l-28 -20 1 -815 c1 -664 4 -814 14 -810 27
11 1036 622 1381 837 91 57 779 478 1045 640 129 78 241 148 247 154 10 9 -11
25 -90 70 -123 71 -489 288 -607 361 -47 29 -186 112 -310 185 -124 73 -246
146 -273 161 -26 16 -48 29 -50 29 -1 0 -27 -15 -57 -32z"/>
<path d="M3135 4039 c-273 -161 -295 -175 -295 -194 0 -16 15 -25 540 -337
645 -384 807 -480 975 -583 332 -201 1524 -916 1803 -1082 l72 -43 0 339 0
339 -367 220 c-203 121 -838 502 -1413 847 -575 346 -1052 630 -1060 632 -8 2
-123 -60 -255 -138z"/>
<path d="M9440 4141 c-25 -16 -189 -114 -365 -218 -848 -503 -1760 -1048
-2210 -1319 l-220 -132 -3 -336 c-1 -185 0 -336 2 -336 3 0 76 43 163 97 189
115 911 552 1478 893 226 135 433 260 460 277 28 17 320 191 650 388 330 197
608 365 618 373 37 32 52 21 -360 256 -84 47 -156 86 -160 85 -5 0 -28 -13
-53 -28z"/>
</g>
</svg>
